HIERARCHY
ROOT hip
{
  OFFSET 0 0 0
  CHANNELS 6 Xposition Yposition Zposition Zrotation Yrotation Xrotation
  JOINT abdomen
  {
    OFFSET 0 20.6881 -0.73152
    CHANNELS 3 Zrotation Xrotation Yrotation
    JOINT chest
    {
      OFFSET 0 11.7043 -0.48768
      CHANNELS 3 Zrotation Xrotation Yrotation
      JOINT neck
      {
        OFFSET 0 22.1894 -2.19456
        CHANNELS 3 Zrotation Xrotation Yrotation
        JOINT head
        {
          OFFSET -0.24384 7.07133 1.2192
          CHANNELS 3 Zrotation Xrotation Yrotation
          JOINT leftEye
          {
            OFFSET 4.14528 8.04674 8.04672
            CHANNELS 3 Zrotation Xrotation Yrotation
            End Site
            {
              OFFSET 1 0 0
            }
          }
          JOINT rightEye
          {
            OFFSET -3.6576 8.04674 8.04672
            CHANNELS 3 Zrotation Xrotation Yrotation
            End Site
            {
              OFFSET 1 0 0
            }
          }
        }
      }
      JOINT rCollar
      {
        OFFSET -2.68224 19.2634 -4.8768
        CHANNELS 3 Zrotation Xrotation Yrotation
        JOINT rShldr
        {
          OFFSET -8.77824 -1.95073 1.46304
          CHANNELS 3 Zrotation Xrotation Yrotation
          JOINT rForeArm
          {
            OFFSET -28.1742 -1.7115 0.48768
            CHANNELS 3 Zrotation Xrotation Yrotation
            JOINT rHand
            {
              OFFSET -22.5879 0.773209 7.07136
              CHANNELS 3 Zrotation Xrotation Yrotation
              JOINT rThumb1
              {
                OFFSET -1.2192 -0.487915 3.41376
                CHANNELS 3 Zrotation Xrotation Yrotation
                JOINT rThumb2
                {
                  OFFSET -3.37035 -0.52449 3.41376
                  CHANNELS 3 Zrotation Xrotation Yrotation
                  End Site
                  {
                    OFFSET -1.78271 -1.18214 1.43049
                  }
                }
              }
              JOINT rIndex1
              {
                OFFSET -7.75947 0.938293 5.60832
                CHANNELS 3 Zrotation Xrotation Yrotation
                JOINT rIndex2
                {
                  OFFSET -2.54057 -0.884171 1.56538
                  CHANNELS 3 Zrotation Xrotation Yrotation
                  End Site
                  {
                    OFFSET -1.62519 -0.234802 1.16502
                  }
                }
              }
              JOINT rMid1
              {
                OFFSET -8.24714 1.18213 3.41376
                CHANNELS 3 Zrotation Xrotation Yrotation
                JOINT rMid2
                {
                  OFFSET -3.10165 -0.590103 1.0647
                  CHANNELS 3 Zrotation Xrotation Yrotation
                  End Site
                  {
                    OFFSET -2.48547 -0.328903 0.83742
                  }
                }
              }
              JOINT rRing1
              {
                OFFSET -8.82822 0.546677 1.51678
                CHANNELS 3 Zrotation Xrotation Yrotation
                JOINT rRing2
                {
                  OFFSET -2.60934 -0.819778 -0.0198488
                  CHANNELS 3 Zrotation Xrotation Yrotation
                  End Site
                  {
                    OFFSET -2.33842 -0.294052 0.168128
                  }
                }
              }
              JOINT rPinky1
              {
                OFFSET -8.27202 -0.0477905 -0.4584
                CHANNELS 3 Zrotation Xrotation Yrotation
                JOINT rPinky2
                {
                  OFFSET -1.82734 -0.647385 -0.700984
                  CHANNELS 3 Zrotation Xrotation Yrotation
                  End Site
                  {
                    OFFSET -1.69225 -0.51767 -0.607171
                  }
                }
              }
            }
          }
        }
      }
      JOINT lCollar
      {
        OFFSET 2.68224 19.2634 -4.8768
        CHANNELS 3 Zrotation Xrotation Yrotation
        JOINT lShldr
        {
          OFFSET 8.77824 -1.95073 1.46304
          CHANNELS 3 Zrotation Xrotation Yrotation
          JOINT lForeArm
          {
            OFFSET 28.1742 -1.7115 0.48768
            CHANNELS 3 Zrotation Xrotation Yrotation
            JOINT lHand
            {
              OFFSET 22.5879 0.773209 7.07136
              CHANNELS 3 Zrotation Xrotation Yrotation
              JOINT lThumb1
              {
                OFFSET 1.2192 -0.487915 3.41376
                CHANNELS 3 Zrotation Xrotation Yrotation
                JOINT lThumb2
                {
                  OFFSET 3.37035 -0.52449 3.41376
                  CHANNELS 3 Zrotation Xrotation Yrotation
                  End Site
                  {
                    OFFSET 1.78271 -1.18214 1.43049
                  }
                }
              }
              JOINT lIndex1
              {
                OFFSET 7.75947 0.938293 5.60832
                CHANNELS 3 Zrotation Xrotation Yrotation
                JOINT lIndex2
                {
                  OFFSET 2.54057 -0.884171 1.56538
                  CHANNELS 3 Zrotation Xrotation Yrotation
                  End Site
                  {
                    OFFSET 1.62519 -0.234802 1.16502
                  }
                }
              }
              JOINT lMid1
              {
                OFFSET 8.24714 1.18213 3.41376
                CHANNELS 3 Zrotation Xrotation Yrotation
                JOINT lMid2
                {
                  OFFSET 3.10165 -0.590103 1.0647
                  CHANNELS 3 Zrotation Xrotation Yrotation
                  End Site
                  {
                    OFFSET 2.48547 -0.328903 0.83742
                  }
                }
              }
              JOINT lRing1
              {
                OFFSET 8.82822 0.546677 1.51678
                CHANNELS 3 Zrotation Xrotation Yrotation
                JOINT lRing2
                {
                  OFFSET 2.60934 -0.819778 -0.0198488
                  CHANNELS 3 Zrotation Xrotation Yrotation
                  End Site
                  {
                    OFFSET 2.33842 -0.294052 0.168128
                  }
                }
              }
              JOINT lPinky1
              {
                OFFSET 8.27202 -0.0477905 -0.4584
                CHANNELS 3 Zrotation Xrotation Yrotation
                JOINT lPinky2
                {
                  OFFSET 1.82734 -0.647385 -0.700984
                  CHANNELS 3 Zrotation Xrotation Yrotation
                  End Site
                  {
                    OFFSET 1.69225 -0.51767 -0.607171
                  }
                }
              }
            }
          }
        }
      }
    }
  }
  JOINT rButtock
  {
    OFFSET -8.77824 4.35084 1.2192
    CHANNELS 3 Zrotation Xrotation Yrotation
    JOINT rThigh
    {
      OFFSET 0 -1.70687 -2.19456
      CHANNELS 3 Zrotation Xrotation Yrotation
      JOINT rShin
      {
        OFFSET 0 -36.8199 0.73152
        CHANNELS 3 Zrotation Xrotation Yrotation
        JOINT rFoot
        {
          OFFSET 0.73152 -45.1104 -5.12064
          CHANNELS 3 Zrotation Xrotation Yrotation
          End Site
          {
            OFFSET -1.1221 -3.69964 12.103
          }
        }
      }
    }
  }
  JOINT lButtock
  {
    OFFSET 8.77824 4.35084 1.2192
    CHANNELS 3 Zrotation Xrotation Yrotation
    JOINT lThigh
    {
      OFFSET 0 -1.70687 -2.19456
      CHANNELS 3 Zrotation Xrotation Yrotation
      JOINT lShin
      {
        OFFSET 0 -36.8199 0.73152
        CHANNELS 3 Zrotation Xrotation Yrotation
        JOINT lFoot
        {
          OFFSET -0.73152 -45.1104 -5.12064
          CHANNELS 3 Zrotation Xrotation Yrotation
          End Site
          {
            OFFSET 1.1221 -3.69964 12.103
          }
        }
      }
    }
  }
}
MOTION
Frames:	5
Frame Time:	0.00833333
131.162 85.0754 -17.0824 -0.0 0.0 -0.0 -0.0 -0.0 -0.0 0.0 0.0 -0.0 -7.906765 12.08614 -91.106352 11.93363 8.136982 91.092829 0.0 0.0 0.0 0.0 0.0 0.0 -9.651699 34.836178 11.199233 6.696055 -0.074019 -3.749926 -135.363681 78.859811 106.665568 158.544178 -42.558254 136.793518 174.054717 -22.871225 88.063103 -178.27864 -15.537424 101.932338 -150.885782 -16.291449 120.978506 0.652552 35.269808 0.374786 -160.826363 -7.141801 143.31627 -150.955833 19.440001 138.527476 0.004875 1.770451 0.556181 -84.179386 79.101475 87.102713 -162.614765 72.590154 -150.839104 -163.166913 52.991357 -144.172607 159.220516 -48.028485 -170.415257 -20.762038 -27.683441 -21.44855 84.560146 -78.4582 114.914579 -128.25024 -65.345351 -110.676024 166.631339 -4.304864 -89.77151 -16.327076 -58.406034 -18.469181 -45.282556 -63.865437 -4.306423 65.834004 43.110011 -53.750068 -68.983989 -80.15399 -40.578188 -34.02686 -58.819886 -12.205126 -0.004873 1.771387 -0.556475 164.996549 10.347457 -170.732524 -19.44814 67.282501 -13.092074 0.21754 -1.594302 3.564891 -0.0 0.0 -0.0 0.0 -0.0 0.0 -0.754531 12.802744 -157.022067 89.732874 -10.880295 -170.399145 -0.0 0.0 -0.0 0.0 -0.0 0.0 -0.73466 -0.06315 -6.434459 -123.345198 -36.267619 2.768499
131.017 85.0979 -16.8727 -0.0 0.0 0.0 0.0 -4.771896 -180.0 -0.0 -4.771896 180.0 -3.941986 17.932259 -132.771391 10.667824 15.013811 131.983833 -0.0 -0.0 0.0 -0.0 -0.0 0.0 -155.417258 -2.951435 161.718542 17.83938 2.192704 16.279945 178.971098 25.257623 -179.293886 -8.519454 25.951535 1.060112 11.509165 -11.48706 -0.622342 -69.521369 32.777588 59.173112 -124.893263 21.79101 105.251057 -23.649448 53.902413 12.029186 -10.975806 25.789868 7.640203 -42.522609 59.335917 33.616162 0.000171 0.022623 0.007107 -3.407188 29.438857 4.691065 -41.391945 -46.839676 -40.214593 -156.711004 52.017546 -152.46816 159.220516 -48.028485 -170.415257 82.89785 64.955938 -94.644688 179.322299 -25.759517 -143.264501 -171.156775 -15.096992 -144.059396 -175.880133 -21.257501 -88.493291 77.440005 11.701672 -23.456062 138.493513 4.896353 -114.8648 148.877753 -3.1536 -123.470234 15.423151 32.961633 -11.295888 -4.146695 -11.37483 2.965819 74.840941 72.961123 -92.827929 -5.771215 0.130189 14.908095 146.206697 15.40572 142.730862 7.435754 -23.673251 12.405415 -0.0 0.0 -0.0 -0.0 -2.27635 180.0 1.274556 -2.589881 168.597531 -130.97324 -33.029662 14.055937 -0.0 0.0 -0.0 -0.0 -2.27635 180.0 -4.397785 -4.907615 -134.404632 147.082811 -56.585712 19.724835
130.883 85.0884 -16.6939 -0.0 0.0 0.0 0.0 -4.771896 -180.0 -0.0 -4.771896 180.0 -3.941986 17.932259 -132.771391 10.667824 15.013811 131.983833 0.0 -0.0 -0.0 0.0 -0.0 -0.0 -155.417258 -2.951435 161.718542 17.83938 2.192704 16.279945 178.971098 25.257623 -179.293886 -8.519454 25.951535 1.060112 11.509165 -11.48706 -0.622342 -69.521369 32.777588 59.173112 -124.893263 21.79101 105.251057 -23.649448 53.902413 12.029186 -10.975806 25.789868 7.640203 -42.522609 59.335917 33.616162 0.000171 0.022623 0.007107 -3.407188 29.438857 4.691065 -41.391945 -46.839676 -40.214593 -156.711004 52.017546 -152.46816 159.220516 -48.028485 -170.415257 -51.675206 -62.841795 -42.163333 103.643843 -75.283738 121.756343 -29.615668 -55.926056 -18.176416 78.030619 38.689342 -42.41267 -1.781615 -14.677769 -24.447679 160.015165 -33.011829 -122.698522 144.936888 -6.335547 -117.51359 160.09819 -4.901163 -142.968881 -12.990087 -19.835441 1.31588 0.007677 3.559155 -1.118768 3.967083 33.385406 -4.767854 141.16344 0.470208 138.191234 158.982804 56.236202 147.761995 -0.0 0.0 -0.0 -0.0 -2.27635 180.0 4.573604 -5.158218 131.753464 -2.312363 -5.916718 51.4023 -0.0 0.0 -0.0 -0.0 -2.27635 180.0 0.8711 -15.292348 -8.675706 -66.530503 2.508641 176.75126
130.776 85.0102 -16.4836 -0.0 0.0 -0.0 -0.0 -0.0 -0.0 0.0 0.0 -0.0 -7.906765 12.08614 -91.106352 11.93363 8.136982 91.092829 -0.0 -0.0 0.0 -0.0 -0.0 0.0 -9.651699 34.836178 11.199233 6.696055 -0.074019 -3.749926 -135.363681 78.859811 106.665568 158.544178 -42.558254 136.793518 171.559955 -25.005 87.392041 137.522606 -63.74865 103.820031 -142.226895 -0.988085 117.059192 97.329218 -74.068822 36.620516 -153.32078 13.628946 138.862343 -142.264413 37.270744 132.797224 0.004672 0.917534 0.288227 -159.292211 43.220055 163.640568 -25.537984 -38.087442 -24.598474 -130.164577 -30.209784 -128.256508 159.220516 -48.028485 -170.415257 -3.627952 14.044815 -22.132243 -176.794267 79.334397 173.755634 5.921566 18.579534 -0.32726 10.082806 9.553975 -2.367178 133.744753 -35.207495 -112.139584 117.900883 27.950241 -99.678959 -178.778773 -58.786271 -117.028938 -23.903801 -61.333833 -1.399383 154.590396 19.273073 -135.74607 -0.004871 1.772325 -0.55677 -0.9041 -26.574399 3.487783 6.122172 -13.785508 5.752615 96.392882 -52.671279 93.727731 -0.0 0.0 -0.0 0.0 -0.0 0.0 7.481051 7.157749 103.722936 6.563018 46.443656 -97.257056 -0.0 0.0 -0.0 0.0 -0.0 0.0 -1.653384 -0.025969 -14.460634 -94.477903 -39.019218 10.609257
130.659 84.8733 -16.2967 -0.0 0.0 -0.0 -0.0 -0.0 -0.0 0.0 0.0 -0.0 -7.906765 12.08614 -91.106352 11.93363 8.136982 91.092829 -0.0 -0.0 0.0 -0.0 -0.0 0.0 -9.651699 34.836178 11.199233 6.696055 -0.074019 -3.749926 -135.363681 78.859811 106.665568 158.544178 -42.558254 136.793518 171.559955 -25.005 87.392041 137.522606 -63.74865 103.820031 -142.226895 -0.988085 117.059192 97.329218 -74.068822 36.620516 -153.32078 13.628946 138.862343 -142.264413 37.270744 132.797224 0.004672 0.917534 0.288227 -159.292211 43.220055 163.640568 -25.537984 -38.087442 -24.598474 -130.164577 -30.209784 -128.256508 159.220516 -48.028485 -170.415257 -3.627952 14.044815 -22.132243 -176.794267 79.334397 173.755634 5.921566 18.579534 -0.32726 10.082806 9.553975 -2.367178 133.744753 -35.207495 -112.139584 117.900883 27.950241 -99.678959 -178.778773 -58.786271 -117.028938 -23.903801 -61.333833 -1.399383 154.590396 19.273073 -135.74607 -0.004871 1.772325 -0.55677 -0.9041 -26.574399 3.487783 6.122172 -13.785508 5.752615 96.392882 -52.671279 93.727731 -0.0 0.0 -0.0 0.0 -0.0 0.0 -0.754531 12.802744 -157.022067 89.732874 -10.880295 -170.399145 -0.0 0.0 -0.0 0.0 -0.0 0.0 -0.73466 -0.06315 -6.434459 -123.345198 -36.267619 2.768499
